<?xml version="1.0" encoding="utf-8"?>
<!-- Generator: Adobe Illustrator 21.0.0, SVG Export Plug-In . SVG Version: 6.00 Build 0)  -->
<svg version="1.0" id="Layer_2" xmlns="http://www.w3.org/2000/svg" xmlns:xlink="http://www.w3.org/1999/xlink" x="0px" y="0px"
	 viewBox="0 0 480 75" enable-background="new 0 0 480 75" xml:space="preserve">
<path fill="#DA7374" d="M413.2,59.7L406.6,75h13.9l-0.6-16.7c-0.1-2.9-0.3-11.7,0.4-17.3C418.3,47.4,415.9,53.6,413.2,59.7z"/>
<path fill="#DA7374" d="M298.9,42.2c-0.4,3.8-1.2,7.9-2,11.7L292.5,75h18.3L302,51.8C301,49.1,299.6,45.2,298.9,42.2z"/>
<path fill="#DA7374" d="M5,0v75h274.8l10.7-50h13.1l8.6,23.1c1.2,3.2,2.2,6.4,3.2,9.6c0.5-3.4,1.3-8.7,2.1-12.9l4.1-19.8h12.7
	l-10.6,50h11l10.6-50H385l-2.2,10.5h-26.8l-1.8,8.6h24.8L377,54.3h-24.8l-2.1,9.8h27.3L375.1,75h18.3l-3.6-50h13.1l0.4,26.7
	c0.1,4.3-0.1,5.8-0.5,9.9c2-6.8,4.6-13.4,7.4-19.8l7.3-16.8h11.9l0.5,16.6c0.1,3.2,0.2,13.5-0.4,20.2c1.9-7.1,5.3-15.4,7.6-20.9
	l6.7-15.8h13.4l-23.8,50h20.3l2.5-12h12.3L466,75h14V0H5z M474,37.3l-7.9,21.4h-5.7l1.1-21.1l2.6-12.6h12.4L474,37.3z"/>
<g>
	<rect fill="#FFFFFF" width="5" height="75"/>
</g>
</svg>
