<?xml version="1.0" encoding="iso-8859-1"?>
<svg version="1.1" id="Layer_1" xmlns="http://www.w3.org/2000/svg" xmlns:xlink="http://www.w3.org/1999/xlink" x="0px" y="0px"
	 viewBox="0 0 30 30" enable-background="new 0 0 30 30" xml:space="preserve">
<path fill="#01A6B3" d="M15,30C6.729,30,0,23.271,0,15S6.729,0,15,0c8.269,0,15,6.729,15,15S23.269,30,15,30L15,30z M15,0.969
	C7.263,0.969,0.969,7.263,0.969,15S7.263,29.031,15,29.031c7.737,0,14.031-6.294,14.031-14.031S22.737,0.969,15,0.969L15,0.969z
	 M15,0.969 M12.234,21.411l-5.366-5.366l0.685-0.683l4.681,4.681L22.423,9.853l0.683,0.686L12.234,21.411z M12.234,21.411"/>
</svg>
