<?xml version="1.0" encoding="iso-8859-1"?>
<svg version="1.1" id="Layer_1" xmlns="http://www.w3.org/2000/svg" xmlns:xlink="http://www.w3.org/1999/xlink" x="0px" y="0px"
	 viewBox="0 0 30 30" enable-background="new 0 0 30 30" xml:space="preserve">
<path fill="#D7D7D7" d="M21.024,9.342l-0.376-0.376l-5.659,5.658l-5.66-5.658L8.954,9.342l5.659,5.659L8.954,20.66l0.376,0.377
	l5.66-5.659l5.659,5.659l0.376-0.377l-5.659-5.659L21.024,9.342z M21.024,9.342 M15,30C6.729,30,0,23.271,0,15S6.729,0,15,0
	c8.269,0,15,6.729,15,15S23.269,30,15,30L15,30z M15,0.969C7.263,0.969,0.969,7.263,0.969,15S7.263,29.031,15,29.031
	c7.737,0,14.031-6.294,14.031-14.031S22.737,0.969,15,0.969L15,0.969z M15,0.969"/>
</svg>
