<?xml version="1.0" encoding="iso-8859-1"?>
<svg version="1.1" id="Layer_1" xmlns="http://www.w3.org/2000/svg" xmlns:xlink="http://www.w3.org/1999/xlink" x="0px" y="0px"
	 viewBox="0 0 30 30" enable-background="new 0 0 30 30" xml:space="preserve">
<path fill="#D7D7D7" d="M14.402,7.909l-0.193,0.7l7.609,2.099L5.852,19.77l0.358,0.632l15.967-9.062l-2.101,7.608l0.7,0.193
	l2.43-8.803L14.402,7.909z M14.402,7.909 M15,30C6.729,30,0,23.271,0,15S6.729,0,15,0c8.269,0,15,6.729,15,15S23.269,30,15,30L15,30
	z M15,0.969C7.263,0.969,0.969,7.263,0.969,15S7.263,29.031,15,29.031c7.737,0,14.031-6.294,14.031-14.031S22.737,0.969,15,0.969
	L15,0.969z M15,0.969"/>
</svg>
