<?xml version="1.0" encoding="iso-8859-1"?>
<!-- Generator: Adobe Illustrator 17.0.0, SVG Export Plug-In . SVG Version: 6.00 Build 0)  -->
<!DOCTYPE svg PUBLIC "-//W3C//DTD SVG 1.1//EN" "http://www.w3.org/Graphics/SVG/1.1/DTD/svg11.dtd">
<svg version="1.1" xmlns="http://www.w3.org/2000/svg" xmlns:xlink="http://www.w3.org/1999/xlink" x="0px" y="0px"
	 width="206.638px" height="28.184px" viewBox="0 0 206.638 28.184" style="enable-background:new 0 0 206.638 28.184;"
	 xml:space="preserve">
<g id="&#x421;&#x43B;&#x43E;&#x439;_2">
	<path style="fill:#FFFFFF;" d="M2.534,0.469c0.356,0,0.646,0.281,0.646,0.623v26.001c0,0.346-0.29,0.623-0.646,0.623H0.646
		C0.292,27.716,0,27.44,0,27.093V1.092c0-0.342,0.292-0.623,0.646-0.623H2.534 M36.708,0.469H34.9c-0.356,0-0.646,0.281-0.646,0.623
		v20.591c0,0.343-0.178,0.403-0.399,0.133L16.905,0.959c-0.221-0.27-0.689-0.49-1.043-0.49h-1.689c-0.354,0-0.646,0.281-0.646,0.623
		v26.001c0,0.346,0.292,0.623,0.646,0.623h1.808c0.356,0,0.65-0.277,0.65-0.623V5.997c0-0.342,0.176-0.402,0.395-0.134L34.42,27.226
		c0.217,0.27,0.687,0.49,1.043,0.49h1.245c0.358,0,0.648-0.277,0.648-0.623V1.092C37.356,0.749,37.066,0.469,36.708,0.469
		 M64.801,0.469H43.959c-0.356,0-0.648,0.281-0.648,0.623v1.593c0,0.343,0.292,0.623,0.648,0.623h8.165
		c0.356,0,0.646,0.284,0.646,0.627v23.158c0,0.346,0.29,0.623,0.648,0.623h1.93c0.352,0,0.646-0.277,0.646-0.623V3.936
		c0-0.343,0.29-0.627,0.642-0.627h8.167c0.358,0,0.648-0.28,0.648-0.623V1.092C65.449,0.749,65.16,0.469,64.801,0.469
		 M91.327,24.914H75.232c-0.356,0-0.646-0.282-0.646-0.623v-8.29c0-0.343,0.29-0.623,0.646-0.623h12.136
		c0.356,0,0.646-0.28,0.646-0.625v-1.554c0-0.344-0.29-0.623-0.646-0.623H75.232c-0.356,0-0.646-0.281-0.646-0.624V3.895
		c0-0.342,0.29-0.624,0.646-0.624h15.895c0.354,0,0.646-0.28,0.646-0.625V1.093c0-0.343-0.292-0.624-0.646-0.624H72.054
		c-0.356,0-0.646,0.281-0.646,0.624v26c0,0.343,0.29,0.623,0.646,0.623h19.273c0.356,0,0.646-0.28,0.646-0.623V25.54
		C91.973,25.197,91.683,24.914,91.327,24.914 M146.668,0.469h-20.844c-0.358,0-0.648,0.281-0.648,0.623v1.593
		c0,0.343,0.29,0.623,0.648,0.623h8.167c0.354,0,0.646,0.284,0.646,0.627v23.158c0,0.346,0.29,0.623,0.644,0.623h1.93
		c0.354,0,0.648-0.277,0.648-0.623V3.936c0-0.343,0.29-0.627,0.642-0.627h8.169c0.354,0,0.644-0.28,0.644-0.623V1.092
		C147.312,0.749,147.022,0.469,146.668,0.469 M164.495,0c8.576,0,14.329,6.502,14.329,14.053c0,7.553-5.836,14.131-14.408,14.131
		c-8.574,0-14.327-6.499-14.327-14.054C150.089,6.578,155.929,0,164.495,0 M164.495,25.344c6.443,0,11.03-4.984,11.03-11.213
		c0-6.227-4.668-11.288-11.108-11.288c-6.441,0-11.028,4.983-11.028,11.211C153.389,20.282,158.056,25.344,164.495,25.344
		 M116.164,20.625h0.002l-3.141-4.041c4.427-0.78,7.644-3.426,7.644-7.979c0-4.906-3.983-8.136-10.182-8.136H99.02
		c-0.354,0-0.648,0.281-0.648,0.623v26.001c0,0.346,0.294,0.623,0.648,0.623h1.888c0.356,0,0.644-0.277,0.644-0.623V3.936
		c0-0.343,0.292-0.627,0.648-0.627h8.045c4.55,0,7.206,2.027,7.206,5.412c0,3.422-2.527,5.139-6.638,5.709
		c-0.464,0.064-1.746,0.085-1.697,1.501c0.016,0.487,0.411,1.043,0.411,1.043c0.174,0.278,0.36,0.526,0.46,0.658l1.642,2.122
		l0.669,0.872l5.088,6.593c0.213,0.275,0.677,0.498,1.031,0.498h2.613c0.354,0,0.472-0.223,0.256-0.498L116.164,20.625z
		 M196.093,0.469h-9.899c-0.358,0-0.648,0.281-0.648,0.623v26.001c0,0.346,0.29,0.623,0.648,0.623h1.887
		c0.358,0,0.646-0.277,0.646-0.623V3.936c0-0.343,0.292-0.627,0.646-0.627h6.48c4.546,0,7.564,2.027,7.564,5.958
		c0,3.379-2.666,5.705-6.818,6h-0.887c-0.356,0-0.646,0.279-0.646,0.622v1.547c0,0.346,0.29,0.624,0.646,0.624h0.975
		c5.585-0.211,9.951-3.364,9.951-8.912C206.638,3.738,202.453,0.469,196.093,0.469"/>
</g>
<g id="&#x421;&#x43B;&#x43E;&#x439;_1">
</g>
</svg>
